{
  "accessors": [
    {
      "bufferView": 2,
      "componentType": 5126,
      "count": 65532,
      "max": [
        0.16438022255897522,
        0.6627997159957886,
        0.25021931529045105
      ],
      "min": [
        -0.21974331140518188,
        -0.3794040083885193,
        -0.25021931529045105
      ],
      "type": "VEC3"
    },
    {
      "bufferView": 2,
      "byteOffset": 786384,
      "componentType": 5126,
      "count": 65532,
      "max": [
        0.9999747276306152,
        0.9999846816062927,
        0.9999812841415405
      ],
      "min": [
        -0.9998778700828552,
        -0.9999997019767761,
        -0.9999982714653015
      ],
      "type": "VEC3"
    },
    {
      "bufferView": 1,
      "componentType": 5126,
      "count": 65532,
      "max": [
        0.9970783591270447,
        0.9999988675117493
      ],
      "min": [
        2.034769750025589e-05,
        8.839417205308564e-06
      ],
      "type": "VEC2"
    },
    {
      "bufferView": 1,
      "byteOffset": 524256,
      "componentType": 5126,
      "count": 65532,
      "max": [
        0.9970783591270447,
        0.9999988675117493
      ],
      "min": [
        2.034769750025589e-05,
        8.839417205308564e-06
      ],
      "type": "VEC2"
    },
    {
      "bufferView": 1,
      "byteOffset": 1048512,
      "componentType": 5126,
      "count": 65532,
      "max": [
        0.9970783591270447,
        0.9999988675117493
      ],
      "min": [
        2.034769750025589e-05,
        8.839417205308564e-06
      ],
      "type": "VEC2"
    },
    {
      "bufferView": 0,
      "componentType": 5125,
      "count": 302595,
      "type": "SCALAR"
    },
    {
      "bufferView": 2,
      "byteOffset": 1572768,
      "componentType": 5126,
      "count": 36657,
      "max": [
        0.1647871732711792,
        0.6418925523757935,
        0.25021931529045105
      ],
      "min": [
        -0.2121393084526062,
        -0.3794139325618744,
        -0.25021931529045105
      ],
      "type": "VEC3"
    },
    {
      "bufferView": 2,
      "byteOffset": 2012652,
      "componentType": 5126,
      "count": 36657,
      "max": [
        0.9999911189079285,
        0.9999895691871643,
        0.9999312162399292
      ],
      "min": [
        -0.9999279379844666,
        -0.9995698928833008,
        -0.9999610185623169
      ],
      "type": "VEC3"
    },
    {
      "bufferView": 1,
      "byteOffset": 1572768,
      "componentType": 5126,
      "count": 36657,
      "max": [
        0.9970719814300537,
        0.9919403195381165
      ],
      "min": [
        0.00013057846808806062,
        5.419995795818977e-05
      ],
      "type": "VEC2"
    },
    {
      "bufferView": 1,
      "byteOffset": 1866024,
      "componentType": 5126,
      "count": 36657,
      "max": [
        0.9970719814300537,
        0.9919403195381165
      ],
      "min": [
        0.00013057846808806062,
        5.419995795818977e-05
      ],
      "type": "VEC2"
    },
    {
      "bufferView": 1,
      "byteOffset": 2159280,
      "componentType": 5126,
      "count": 36657,
      "max": [
        0.9970719814300537,
        0.9919403195381165
      ],
      "min": [
        0.00013057846808806062,
        5.419995795818977e-05
      ],
      "type": "VEC2"
    },
    {
      "bufferView": 0,
      "byteOffset": 1210380,
      "componentType": 5125,
      "count": 175527,
      "type": "SCALAR"
    }
  ],
  "asset": {
    "extras": {
      "author": "Jacek Jaskólski (https://sketchfab.com/jacekjaskolski)",
      "license": "CC-BY-4.0 (http://creativecommons.org/licenses/by/4.0/)",
      "source": "https://sketchfab.com/3d-models/seed-grown-avocado-iphone-3d-scan-696b288fb1074408b235699d6fe525bc",
      "title": "Seed grown avocado - iPhone 3d scan"
    },
    "generator": "Sketchfab-11.59.0",
    "version": "2.0"
  },
  "bufferViews": [
    {
      "buffer": 0,
      "byteLength": 1912488,
      "name": "floatBufferViews",
      "target": 34963
    },
    {
      "buffer": 0,
      "byteLength": 2452536,
      "byteOffset": 1912488,
      "byteStride": 8,
      "name": "floatBufferViews",
      "target": 34962
    },
    {
      "buffer": 0,
      "byteLength": 2452536,
      "byteOffset": 4365024,
      "byteStride": 12,
      "name": "floatBufferViews",
      "target": 34962
    }
  ],
  "buffers": [
    {
      "byteLength": 6817560,
      "uri": "scene.bin"
    }
  ],
  "extensionsUsed": [
    "KHR_materials_unlit"
  ],
  "images": [
    {
      "uri": "textures/material_0_baseColor.jpeg"
    }
  ],
  "materials": [
    {
      "extensions": {
        "KHR_materials_unlit": {}
      },
      "name": "material_0",
      "pbrMetallicRoughness": {
        "baseColorTexture": {
          "index": 0
        },
        "metallicFactor": 0.0
      }
    }
  ],
  "meshes": [
    {
      "name": "Object_0",
      "primitives": [
        {
          "attributes": {
            "NORMAL": 1,
            "POSITION": 0,
            "TEXCOORD_0": 2,
            "TEXCOORD_1": 3,
            "TEXCOORD_2": 4
          },
          "indices": 5,
          "material": 0,
          "mode": 4
        }
      ]
    },
    {
      "name": "Object_1",
      "primitives": [
        {
          "attributes": {
            "NORMAL": 7,
            "POSITION": 6,
            "TEXCOORD_0": 8,
            "TEXCOORD_1": 9,
            "TEXCOORD_2": 10
          },
          "indices": 11,
          "material": 0,
          "mode": 4
        }
      ]
    }
  ],
  "nodes": [
    {
      "children": [
        1
      ],
      "matrix": [
        1.0,
        0.0,
        0.0,
        0.0,
        0.0,
        2.220446049250313e-16,
        -1.0,
        0.0,
        0.0,
        1.0,
        2.220446049250313e-16,
        0.0,
        0.0,
        0.0,
        0.0,
        1.0
      ],
      "name": "Sketchfab_model"
    },
    {
      "children": [
        2
      ],
      "name": "root"
    },
    {
      "children": [
        3
      ],
      "matrix": [
        1.0,
        0.0,
        0.0,
        0.0,
        0.0,
        2.220446049250313e-16,
        1.0,
        0.0,
        0.0,
        -1.0,
        2.220446049250313e-16,
        0.0,
        0.0,
        0.0,
        0.0,
        1.0
      ],
      "name": "GLTF_SceneRootNode"
    },
    {
      "children": [
        4,
        5
      ],
      "name": "_0"
    },
    {
      "mesh": 0,
      "name": "Object_4"
    },
    {
      "mesh": 1,
      "name": "Object_5"
    }
  ],
  "samplers": [
    {
      "magFilter": 9729,
      "minFilter": 9987,
      "wrapS": 10497,
      "wrapT": 10497
    }
  ],
  "scene": 0,
  "scenes": [
    {
      "name": "Sketchfab_Scene",
      "nodes": [
        0
      ]
    }
  ],
  "textures": [
    {
      "sampler": 0,
      "source": 0
    }
  ]
}
